<svg width="512" height="512" viewBox="0 0 512 512" fill="none" xmlns="http://www.w3.org/2000/svg">
<g id="station-de-charge 1">
<g id="FILLED_OUTLINE">
<path id="Vector" d="M56 130V490H456V130L256 26L56 130Z" fill="#B3EFC0"/>
<path id="Vector_2" d="M120 330H152V346H120V330Z" fill="#00A16C"/>
<path id="Vector_3" d="M368 330H400V346H368V330Z" fill="#00A16C"/>
<path id="Vector_4" d="M408.583 380.306L379.994 346L358.935 282.821C355.749 273.264 349.636 264.951 341.464 259.06C333.291 253.17 323.472 250 313.397 250H206.591C196.517 250 186.698 253.17 178.525 259.06C170.352 264.951 164.24 273.264 161.054 282.821L139.994 346L111.406 380.306C107.917 384.494 105.555 389.503 104.544 394.859C103.533 400.215 103.908 405.741 105.632 410.912L112.348 431.06C113.41 434.246 115.448 437.017 118.172 438.98C120.896 440.943 124.169 442 127.527 442H392.461C395.82 442 399.092 440.943 401.817 438.98C404.541 437.017 406.578 434.246 407.641 431.06L414.357 410.912C416.081 405.741 416.455 400.215 415.445 394.859C414.434 389.503 412.072 384.494 408.583 380.306Z" fill="#00B373"/>
<path id="Vector_5" d="M256 74L216 98V154H296V98L256 74Z" fill="#00B3A8"/>
<path id="Vector_6" d="M216 114H296V130H216V114Z" fill="#00B378"/>
<path id="Vector_7" d="M128 442V474C128 478.243 129.686 482.313 132.686 485.314C135.687 488.314 139.757 490 144 490H160C164.243 490 168.313 488.314 171.314 485.314C174.314 482.313 176 478.243 176 474V442H128Z" fill="#465257"/>
<path id="Vector_8" d="M320 282H192L176 338H336L320 282Z" fill="#59CEA7"/>
<g id="cable">
<path id="Vector_9" d="M248 402H120C109.395 401.988 99.228 397.77 91.7291 390.271C84.2303 382.772 80.0121 372.605 80 362V274H96V362C96.0073 368.363 98.5382 374.463 103.037 378.963C107.537 383.462 113.637 385.993 120 386H248V402Z" fill="#85AFE1"/>
<path id="Vector_10" d="M256 410C264.837 410 272 402.837 272 394C272 385.163 264.837 378 256 378C247.163 378 240 385.163 240 394C240 402.837 247.163 410 256 410Z" fill="#5791D6"/>
</g>
<path id="Vector_11" d="M336 442V474C336 478.243 337.686 482.313 340.686 485.314C343.687 488.314 347.757 490 352 490H368C372.243 490 376.313 488.314 379.314 485.314C382.314 482.313 384 478.243 384 474V442H336Z" fill="#465257"/>
<path id="Vector_12" d="M336 394H376V410H336V394Z" fill="#59CEA7"/>
<path id="Vector_13" d="M486.546 158.024L256 35.0664L19.7647 161.059L12.2354 146.941L252.235 18.9414C253.394 18.323 254.687 17.9995 256 17.9995C257.313 17.9995 258.606 18.323 259.765 18.9414L492.38 143.003L486.546 158.024Z" fill="#00B378"/>
<path id="Vector_14" d="M88 186H56V282H88C92.2435 282 96.3131 280.314 99.3137 277.314C102.314 274.313 104 270.243 104 266V202C104 197.757 102.314 193.687 99.3137 190.686C96.3131 187.686 92.2435 186 88 186Z" fill="#00B378"/>
<path id="Vector_15" d="M384 26C365.348 26.0033 347.041 31.0217 330.994 40.5295C314.948 50.0374 301.753 63.685 292.792 80.0429C283.831 96.4009 279.433 114.867 280.059 133.509C280.684 152.15 286.311 170.28 296.349 186L272 250L344 226.029C358.205 231.945 373.545 234.636 388.916 233.907C404.286 233.178 419.303 229.048 432.884 221.814C446.465 214.58 458.272 204.423 467.454 192.075C476.636 179.727 482.963 165.496 485.981 150.407C488.998 135.318 488.63 119.748 484.903 104.819C481.176 89.8895 474.183 75.9731 464.428 64.0728C454.673 52.1726 442.399 42.585 428.491 36.0013C414.583 29.4176 399.388 26.0017 384 26Z" fill="#39D665"/>
<path id="Vector_16" d="M16 482H496V498H16V482Z" fill="#00B378"/>
<g id="eclair">
<path id="Vector_17" d="M416 68L328 140H368L352 196L440 124H400L416 68Z" fill="#F4D1BD"/>
<path id="Vector_18" d="M440 114H410.605L423.692 68.1982C424.161 66.5596 424.094 64.8143 423.501 63.2166C422.908 61.6188 421.82 60.2522 420.396 59.3158C418.972 58.3794 417.286 57.9223 415.585 58.0109C413.883 58.0995 412.254 58.7294 410.935 59.8086L322.935 131.809C321.657 132.853 320.735 134.268 320.293 135.858C319.851 137.448 319.911 139.135 320.466 140.689C321.021 142.244 322.042 143.588 323.391 144.539C324.74 145.49 326.35 146 328 146H357.395L344.308 191.802C343.839 193.44 343.906 195.186 344.499 196.783C345.092 198.381 346.18 199.748 347.604 200.684C349.028 201.621 350.714 202.078 352.415 201.989C354.117 201.901 355.746 201.271 357.065 200.191L445.065 128.191C446.343 127.146 447.265 125.732 447.707 124.142C448.149 122.552 448.089 120.865 447.534 119.31C446.979 117.756 445.958 116.412 444.609 115.461C443.26 114.51 441.65 114 440 114ZM366.713 171.626L375.692 140.198C376.033 139.008 376.092 137.754 375.865 136.537C375.639 135.32 375.133 134.171 374.387 133.183C373.641 132.194 372.676 131.392 371.568 130.84C370.46 130.288 369.238 130 368 130H350.411L401.287 88.374L392.308 119.802C391.968 120.992 391.908 122.246 392.135 123.463C392.361 124.68 392.868 125.829 393.613 126.817C394.359 127.806 395.324 128.608 396.432 129.16C397.54 129.712 398.762 130 400 130H417.589L366.713 171.626Z" fill="#2E4256"/>
</g>
<path id="Vector_19" d="M464 208.297C484.276 187.613 495.745 159.875 495.997 130.911C496.248 101.948 485.263 74.0141 465.35 52.9805C445.437 31.9469 418.146 19.4509 389.212 18.1185C360.278 16.7861 331.954 26.721 310.192 45.8355L259.765 18.9415C258.606 18.3231 257.313 17.9996 256 17.9996C254.687 17.9996 253.394 18.3231 252.235 18.9415L12.2354 146.941L19.7647 161.059L48 146V482H16V498H496V482H464V208.297ZM64 194H88C90.121 194.002 92.1544 194.846 93.6542 196.346C95.1539 197.846 95.9976 199.879 96 202V266C95.9976 268.121 95.1539 270.154 93.6542 271.654C92.1544 273.154 90.121 273.998 88 274H64V194ZM168 474C167.998 476.121 167.154 478.154 165.654 479.654C164.154 481.154 162.121 481.998 160 482H144C141.879 481.998 139.846 481.154 138.346 479.654C136.846 478.154 136.002 476.121 136 474V450H168V474ZM182.624 482C183.536 479.431 184.001 476.726 184 474V450H328V474C327.999 476.726 328.464 479.431 329.376 482H182.624ZM376 474C375.998 476.121 375.154 478.154 373.654 479.654C372.154 481.154 370.121 481.998 368 482H352C349.879 481.998 347.846 481.154 346.346 479.654C344.846 478.154 344.002 476.121 344 474V450H376V474ZM123.533 434C121.854 434.002 120.216 433.474 118.854 432.492C117.491 431.51 116.473 430.124 115.943 428.53L109.227 408.382L94.0469 413.442L100.764 433.591C102.163 437.797 104.702 441.533 108.098 444.383C111.494 447.232 115.614 449.084 120 449.731V474C119.999 476.726 120.464 479.431 121.376 482H64V290H80V362C80.0121 372.605 84.2303 382.772 91.7291 390.271C99.228 397.77 109.395 401.988 120 402H233.376C235.263 407.338 238.977 411.836 243.86 414.701C248.743 417.566 254.482 418.612 260.062 417.654C265.642 416.697 270.704 413.798 274.353 409.469C278.002 405.141 280.004 399.662 280.004 394C280.004 388.339 278.002 382.859 274.353 378.531C270.704 374.202 265.642 371.303 260.062 370.346C254.482 369.388 248.743 370.434 243.86 373.299C238.977 376.164 235.263 380.662 233.376 386H120C113.637 385.993 107.537 383.462 103.037 378.963C98.5382 374.463 96.0073 368.363 96 362V288.624C100.676 286.965 104.723 283.9 107.588 279.849C110.452 275.799 111.994 270.961 112 266V202C111.993 195.637 109.462 189.537 104.963 185.037C100.463 180.538 94.363 178.007 88 178H64V137.466L256 35.0664L298.506 57.7361C292.486 64.8429 287.372 72.671 283.284 81.04L260.116 67.1397C258.873 66.3939 257.45 66 256 66C254.55 66 253.127 66.3939 251.884 67.1397L211.884 91.1397C210.699 91.8506 209.719 92.8561 209.038 94.0583C208.358 95.2606 208 96.6185 208 98V154C208 156.122 208.843 158.156 210.343 159.657C211.844 161.157 213.878 162 216 162H276.659C279.24 170.687 282.871 179.027 287.473 186.834L266.484 242H202.597C190.841 241.989 179.38 245.683 169.843 252.557C160.306 259.431 153.177 269.135 149.47 280.291L132.9 330H112V346H125.586L109.854 364.879L122.145 375.121L142.145 351.121C142.784 350.355 143.274 349.477 143.59 348.53L164.649 285.352C167.297 277.383 172.389 270.451 179.201 265.541C186.013 260.631 194.199 257.992 202.597 258H309.403C317.801 257.992 325.987 260.631 332.799 265.541C339.611 270.451 344.703 277.383 347.351 285.352L368.41 348.53C368.726 349.477 369.216 350.355 369.854 351.121L398.442 385.429C401.072 388.562 402.852 392.319 403.611 396.339C404.369 400.358 404.081 404.506 402.773 408.382L396.057 428.53C395.527 430.124 394.509 431.51 393.146 432.492C391.784 433.474 390.146 434.002 388.467 434H123.533ZM248 394C248 392.418 248.469 390.871 249.348 389.555C250.227 388.24 251.477 387.215 252.939 386.609C254.4 386.004 256.009 385.845 257.561 386.154C259.113 386.462 260.538 387.224 261.657 388.343C262.776 389.462 263.538 390.887 263.846 392.439C264.155 393.991 263.997 395.6 263.391 397.061C262.786 398.523 261.76 399.773 260.445 400.652C259.129 401.531 257.582 402 256 402C253.879 401.998 251.846 401.154 250.346 399.654C248.846 398.154 248.002 396.121 248 394ZM273.148 114H224V102.529L256 83.3291L277.255 96.0828C275.393 101.931 274.019 107.924 273.148 114ZM273.152 146H224V130H272C272.003 135.354 272.388 140.701 273.152 146H273.152ZM448 482H390.624C391.536 479.431 392.001 476.726 392 474V449.731C396.386 449.084 400.506 447.232 403.902 444.383C407.298 441.533 409.837 437.797 411.236 433.591L417.953 413.441C420.132 406.981 420.612 400.069 419.347 393.369C418.083 386.67 415.117 380.408 410.733 375.186L386.414 346H400V330H379.1L362.53 280.291C359.335 270.679 353.589 262.116 345.906 255.515C338.223 248.915 328.892 244.525 318.908 242.815L343.745 234.546C360.836 241.114 379.276 243.392 397.452 241.18C415.627 238.968 432.983 232.334 448 221.859V482ZM384 226C371.327 226.024 358.776 223.524 347.079 218.646C345.296 217.903 343.305 217.829 341.473 218.439L285.474 237.082L303.827 188.845C304.271 187.677 304.436 186.421 304.307 185.178C304.178 183.935 303.761 182.739 303.087 181.687C291.607 163.721 286.434 142.447 288.382 121.216C290.331 99.9858 299.29 80.0079 313.848 64.4323C328.405 48.8566 347.733 38.5694 368.783 35.1926C389.834 31.8158 411.409 35.5415 430.108 45.7823C448.807 56.0231 463.566 72.1964 472.057 91.7521C480.548 111.308 482.288 133.133 477.004 153.788C471.72 174.442 459.711 192.75 442.871 205.825C426.032 218.9 405.32 225.998 384 226Z" fill="#005403"/>
<path id="Vector_20" d="M342.387 342.817C343.132 341.829 343.638 340.681 343.865 339.464C344.092 338.246 344.032 336.993 343.692 335.803L327.692 279.803C327.215 278.131 326.206 276.66 324.818 275.613C323.43 274.566 321.739 274 320 274H192C190.261 274 188.57 274.566 187.182 275.613C185.794 276.66 184.785 278.131 184.308 279.803L168.308 335.803C167.968 336.993 167.909 338.247 168.135 339.464C168.362 340.681 168.868 341.829 169.614 342.818C170.359 343.806 171.324 344.608 172.432 345.16C173.541 345.712 174.762 346 176 346H336C337.238 346 338.46 345.712 339.568 345.16C340.676 344.608 341.641 343.806 342.387 342.817ZM186.605 330L198.034 290H313.966L325.395 330H186.605Z" fill="#2E4256"/>
<path id="Vector_21" d="M336 394H376V410H336V394Z" fill="#2E4256"/>
</g>
</g>
</svg>
